<svg width="22" height="16" viewBox="0 0 22 16" fill="none" xmlns="http://www.w3.org/2000/svg">
<path d="M22 6.62505H19.9375V4.56255H17.875V6.62505H15.8125V8.68754H17.875V10.75H19.9375V8.68754H22V6.62505Z" fill="white"/>
<path d="M7.5625 6.62506V9.16881H11.6875C11.55 10.2688 10.3812 12.4001 7.49375 12.4001C4.95 12.4001 2.8875 10.2688 2.8875 7.72506C2.8875 5.18131 4.95 3.05006 7.49375 3.05006C8.9375 3.05006 9.9 3.66881 10.45 4.21881L12.4438 2.29381C11.1375 1.05631 9.4875 0.368811 7.425 0.368811C3.3 0.231311 0 3.60006 0 7.72506C0 11.8501 3.3 15.1501 7.425 15.1501C12.5813 15.1501 15.1938 10.8876 14.4375 6.62506H7.5625Z" fill="white"/>
</svg>
