<?xml version="1.0" encoding="UTF-8"?>
<!DOCTYPE svg PUBLIC "-//W3C//DTD SVG 1.1//EN" "http://www.w3.org/Graphics/SVG/1.1/DTD/svg11.dtd">
<svg version="1.1" xmlns="http://www.w3.org/2000/svg" xmlns:xlink="http://www.w3.org/1999/xlink" x="0" y="0" width="675" height="345" viewBox="0, 0, 675, 345">
  <g id="Layer_1">
    <path d="M566.504,172.169 C566.504,264.611 491.565,339.547 399.124,339.547 C306.685,339.547 231.746,264.611 231.746,172.169 C231.746,79.728 306.685,4.79 399.124,4.79 C491.565,4.79 566.504,79.728 566.504,172.169" fill="#F8EC35"/>
    <path d="M537.978,246.827 C539.855,249.115 541.576,251.489 542.952,253.963 C544.345,256.423 545.564,258.881 546.509,261.303 C546.746,261.91 546.982,262.507 547.211,263.094 C547.411,263.694 547.607,264.286 547.799,264.866 C548.212,266.022 548.498,267.172 548.802,268.269 C549.129,269.361 549.313,270.436 549.552,271.447 C549.803,272.457 549.96,273.43 550.116,274.342 C550.471,276.164 550.609,277.779 550.784,279.103 C550.925,280.429 550.986,281.477 551.051,282.188 C551.11,282.902 551.141,283.284 551.141,283.284 C551.141,283.284 551.135,282.901 551.129,282.186 C551.108,281.47 551.144,280.416 551.063,279.08 C550.959,277.747 550.906,276.117 550.647,274.267 C550.452,272.407 550.104,270.322 549.586,268.076 C549.318,266.955 549.064,265.78 548.687,264.595 C548.509,263.998 548.328,263.391 548.146,262.774 C547.93,262.169 547.711,261.554 547.489,260.93 C547.075,259.669 546.504,258.432 545.973,257.146 C545.705,256.501 545.364,255.884 545.049,255.246 C544.727,254.612 544.417,253.965 544.037,253.347 C542.654,250.799 540.915,248.343 539.011,245.97 C537.107,243.588 534.878,241.413 532.506,239.421 C530.114,237.452 527.523,235.724 524.828,234.303 C522.137,232.878 519.383,231.661 516.613,230.805 C513.854,229.92 511.115,229.289 508.486,228.946 C507.18,228.72 505.891,228.652 504.654,228.525 C503.41,228.448 502.209,228.409 501.057,228.384 C499.903,228.416 498.799,228.385 497.748,228.468 C496.702,228.559 495.709,228.605 494.781,228.722 C493.855,228.843 492.987,228.957 492.188,229.061 C491.389,229.205 490.659,229.338 490,229.457 C488.676,229.665 487.672,229.987 486.973,230.138 C486.276,230.307 485.905,230.397 485.905,230.397 C485.905,230.397 486.281,230.333 486.986,230.213 C487.694,230.107 488.725,229.879 490.051,229.731 C490.709,229.646 491.439,229.556 492.236,229.453 C493.037,229.392 493.902,229.324 494.826,229.253 C496.677,229.152 498.765,229.128 501.037,229.191 C502.172,229.252 503.354,229.328 504.573,229.444 C505.787,229.609 507.049,229.715 508.321,229.978 C510.89,230.393 513.536,231.122 516.223,231.989 C518.917,232.852 521.588,234.068 524.188,235.479 C526.795,236.89 529.292,238.596 531.593,240.532 C533.909,242.443 536.101,244.529 537.978,246.827 M481.4,244.994 C481.239,244.814 481.079,244.78 480.951,244.747 C480.688,244.689 480.471,244.704 480.25,244.706 C478.54,244.84 477.148,245.19 475.967,245.37 C474.795,245.563 473.866,245.691 473.232,245.656 C472.918,245.646 472.676,245.585 472.538,245.495 C472.396,245.415 472.373,245.314 472.363,245.325 C472.374,245.314 472.39,245.417 472.526,245.513 C472.66,245.615 472.905,245.698 473.226,245.735 C473.867,245.816 474.818,245.781 476.005,245.646 C477.189,245.537 478.646,245.271 480.256,245.242 C480.449,245.25 480.659,245.256 480.813,245.304 L480.896,245.334 L480.881,245.356 C480.825,245.469 480.683,245.609 480.51,245.77 C480.361,245.893 480.192,246.033 480.004,246.152 C479.258,246.641 478.393,247.09 477.479,247.522 C473.808,249.259 469.315,250.869 464.567,252.769 C463.377,253.246 462.169,253.729 460.947,254.263 L460.024,254.688 C459.867,254.769 459.715,254.845 459.549,254.939 L459.281,255.102 L459.044,255.311 L458.901,255.487 L458.866,255.538 C458.716,255.992 458.813,255.836 458.801,256.015 C458.825,256.129 458.852,256.176 458.876,256.221 C458.935,256.326 459.008,256.407 459.038,256.433 L459.16,256.535 C459.297,256.63 459.396,256.676 459.49,256.721 C459.68,256.807 459.85,256.87 460.019,256.927 C460.357,257.044 460.686,257.141 461.015,257.234 C463.635,257.958 466.276,258.561 468.845,259.363 C470.122,259.753 471.419,260.175 472.496,260.775 C472.76,260.926 473.001,261.095 473.163,261.258 C473.327,261.443 473.318,261.496 473.313,261.493 C473.377,261.461 473.081,261.797 472.858,262.012 C472.639,262.249 472.396,262.475 472.16,262.702 C470.256,264.523 468.182,266.135 466.118,267.596 C464.049,269.052 461.966,270.345 459.939,271.481 C458.922,272.044 457.929,272.58 456.935,273.044 C455.96,273.542 454.989,273.958 454.054,274.357 C453.129,274.781 452.206,275.092 451.345,275.431 C450.486,275.783 449.647,276.051 448.861,276.303 C447.297,276.853 445.891,277.17 444.743,277.485 C443.588,277.769 442.662,277.936 442.037,278.076 C441.412,278.21 441.079,278.28 441.079,278.28 C441.079,278.28 441.417,278.236 442.053,278.152 C442.683,278.055 443.62,277.984 444.794,277.759 C445.962,277.511 447.407,277.275 449.01,276.813 C449.819,276.605 450.683,276.386 451.57,276.082 C452.461,275.793 453.403,275.496 454.354,275.105 C455.315,274.734 456.319,274.35 457.325,273.881 C458.348,273.445 459.377,272.937 460.432,272.404 C462.529,271.319 464.713,270.103 466.829,268.62 C468.953,267.152 471.082,265.542 473.083,263.675 C473.331,263.439 473.584,263.211 473.825,262.958 L474.192,262.585 C474.315,262.44 474.294,262.48 474.407,262.318 C474.502,262.185 474.563,262.046 474.615,261.904 C474.719,261.602 474.693,261.225 474.58,260.951 C474.469,260.676 474.312,260.478 474.157,260.309 C473.846,259.987 473.521,259.771 473.199,259.577 C471.905,258.843 470.589,258.416 469.269,257.99 C466.623,257.191 463.937,256.618 461.375,255.94 C461.177,255.887 460.986,255.828 460.794,255.769 L461.477,255.444 C462.661,254.912 463.857,254.414 465.037,253.926 C467.401,252.964 469.68,251.998 471.829,251.056 C473.979,250.111 476.007,249.196 477.839,248.248 C478.753,247.768 479.625,247.295 480.407,246.714 C480.605,246.572 480.784,246.41 480.974,246.229 C481.116,246.07 481.31,245.897 481.439,245.606 C481.509,245.481 481.559,245.208 481.4,244.994 M440.528,240.317 C442.152,239.47 443.884,238.866 445.66,238.463 C446.002,238.385 446.344,238.303 446.688,238.24 C448.828,237.86 451.027,237.835 453.2,238.102 L453.544,238.144 L453.775,237.895 C456,235.526 458.04,233.009 460.131,230.582 L460.251,230.446 C461.266,229.29 462.28,228.137 463.377,227.095 C464.519,226.025 465.766,225.049 467.183,224.536 C467.891,224.288 468.633,224.17 469.377,224.211 C469.734,224.232 470.175,224.273 470.396,224.401 C470.7,224.547 470.997,224.77 471.268,225.025 C472.351,226.081 473.105,227.517 473.609,228.997 C474.103,230.489 474.311,232.088 474.211,233.676 C474.104,235.264 473.709,236.839 473.059,238.313 C473.814,236.894 474.346,235.328 474.533,233.706 C474.725,232.085 474.604,230.419 474.172,228.827 C473.736,227.239 473.028,225.692 471.83,224.452 C471.523,224.147 471.186,223.862 470.769,223.643 C470.27,223.393 469.881,223.385 469.441,223.328 C468.579,223.252 467.698,223.362 466.877,223.621 C465.229,224.159 463.854,225.184 462.62,226.265 C461.587,227.172 460.655,228.161 459.751,229.166 C459.567,229.368 459.378,229.563 459.199,229.768 C457.132,232.115 455.146,234.497 453.023,236.733 C450.847,236.471 448.624,236.478 446.447,236.839 C446.106,236.894 445.771,236.977 445.434,237.05 C443.499,237.471 441.629,238.176 439.888,239.096 C435.785,241.277 432.434,244.576 429.703,248.21 C428.337,250.036 427.143,251.98 426.055,253.969 C424.97,255.961 424.001,258.011 423.126,260.095 C422.242,262.177 421.51,264.316 420.837,266.469 C420.168,268.623 419.59,270.804 419.145,273.01 C419.771,270.849 420.476,268.714 421.252,266.609 C422.028,264.505 422.917,262.446 423.842,260.409 C424.775,258.377 425.804,256.39 426.937,254.47 C428.064,252.546 429.321,250.706 430.678,248.951 C433.372,245.448 436.639,242.325 440.528,240.317 M436.619,254.661 C432.871,253.495 430.62,263.531 431.476,262.642 C432.455,261.626 434.569,260.265 436.901,259.698 C439.235,259.133 440.371,255.83 436.619,254.661 M664.859,290.646 C664.859,290.646 664.387,290.442 663.504,290.059 C662.63,289.667 661.316,289.143 659.615,288.593 C657.927,288.016 655.803,287.506 653.355,287.23 C650.904,286.978 648.099,287.024 645.179,287.767 C642.248,288.458 639.242,289.792 636.188,291.459 C633.123,293.123 629.979,295.103 626.619,297.036 C623.266,298.978 619.688,300.871 615.883,302.474 C612.069,304.097 608.117,305.413 603.892,306.38 C601.682,306.815 599.378,306.883 597.141,306.627 C594.905,306.358 592.747,305.782 590.722,305.042 C586.663,303.54 583.097,301.488 579.734,299.593 C576.378,297.679 573.216,295.882 570.157,294.466 C567.108,293.041 564.173,292 561.429,291.376 C558.331,290.656 555.513,290.481 553.06,290.56 C552.823,290.567 552.58,290.568 552.351,290.58 C551.874,292.425 551.266,293.868 550.566,294.777 C547.668,298.545 536.842,300.538 530.374,301.728 C526.59,302.424 524.9,302.75 524.466,303.194 C523.248,304.445 520.11,306.93 518.702,307.024 C518.445,307.034 518.39,306.953 518.365,306.922 C518.122,306.577 518.415,305.478 518.688,304.844 L519.313,303.398 L518.123,304.43 C518.08,304.465 513.937,308.024 510.574,308.473 C510.266,308.356 510.187,308.193 510.155,308.075 C509.962,307.364 510.951,305.921 511.622,305.178 L511.104,304.682 C510.165,305.605 507.607,307.834 506.095,308.055 C506.55,306.593 508.074,304.506 508.092,304.482 L508.861,303.434 L507.664,303.937 C506.16,304.569 503.733,305.496 502.553,305.75 C503.402,304 505.449,301.592 507.065,301.307 C526.094,297.945 524.827,287.737 523.9,280.284 C523.484,276.936 523.125,274.044 524.549,272.406 C525.426,271.397 526.97,270.891 529.265,270.857 L530.789,270.835 L529.415,270.175 C526.44,268.741 524.387,269.424 523.185,270.249 C520.76,271.914 519.713,275.498 519.933,278.176 C519.998,278.982 520.147,279.806 520.29,280.602 C520.859,283.757 521.395,286.738 517.29,289.181 C510.1,293.458 498.188,298.27 494.219,295.577 C493.11,294.827 492.705,293.482 493.01,291.582 C494.196,284.142 488.399,281.022 486.901,280.647 C486.741,280.609 486.257,280.49 486.128,280.875 C485.996,281.259 486.414,281.527 487.231,281.89 C490.418,283.299 490.929,287.15 488.836,294.01 C487.829,297.31 479.64,299.007 473.657,300.246 C469.371,301.134 466.909,301.676 466.142,302.489 C464.589,304.144 460.778,306.109 459.513,306.533 C459.678,305.888 460.033,304.726 460.273,303.971 L460.325,303.811 L460.236,303.671 C460.171,303.568 460.029,303.457 459.822,303.453 C459.469,303.423 458.97,303.671 457.795,305.428 C456.99,306.628 454.557,307.489 452.675,307.69 C451.854,307.778 451.435,307.704 451.274,307.642 C451.477,307.488 452.081,307.306 452.424,307.202 C453.218,306.962 453.846,306.77 453.863,306.27 C453.878,305.833 453.402,305.563 452.683,305.294 C450.88,304.619 448.458,304.998 446.32,305.327 C445.15,305.51 444.035,305.683 443.325,305.577 C443.889,305.216 445.329,304.637 446.25,304.267 C447.791,303.646 448.752,303.252 449.089,302.919 C449.531,302.485 449.322,302.093 449.247,301.982 C448.98,301.592 448.269,301.393 447.537,301.381 C449.304,300.576 453.12,299.652 455.417,299.095 C457.374,298.622 458.922,298.246 459.426,297.981 C459.796,297.79 459.998,297.467 459.999,297.07 C460.002,295.413 456.274,292.47 450.024,289.192 C445.436,286.786 444.535,283.205 443.997,281.065 C443.73,280.009 443.57,279.372 443.028,279.252 C442.562,279.148 442.074,279.502 441.175,280.603 C437.727,284.831 431.811,283.625 431.765,283.618 C429.552,283.06 427.379,283.14 425.787,283.192 C424.602,283.234 423.479,283.274 423.235,283.012 C423.291,282.712 424.543,282.024 425.216,281.655 C426.556,280.922 427.438,280.437 427.187,279.806 C426.805,278.84 426.147,278.309 423.439,277.899 C422.185,277.708 420.943,278.149 419.931,278.719 L420.197,279.397 L421.841,283.596 L417.514,280.434 C416.816,280.56 415.557,280.656 415.084,280.091 C414.687,279.615 414.96,278.724 415.257,278.058 C416.123,276.124 416.7,273.352 417.365,270.142 C417.963,267.272 418.638,264.021 419.649,260.796 C422.664,251.199 429.84,236.102 445.419,233.955 C445.442,233.706 445.471,233.459 445.507,233.215 C446.485,226.591 451.77,222.204 455.628,224.168 C456.346,224.535 457.34,225.454 458.26,226.681 C458.403,226.874 458.548,227.072 458.688,227.282 C461.808,224.429 465.569,221.549 468.666,220.824 C470.088,220.486 471.399,220.891 472.567,222.01 C475.925,225.231 477.227,233.622 476.736,236.188 L476.728,236.242 L476.732,236.296 C476.736,236.326 477.056,239.511 474.658,243.28 L474.058,244.224 L475.096,243.808 C477.762,242.737 478.242,236.32 478.628,231.162 C478.678,230.498 478.725,229.87 478.773,229.298 C478.842,228.516 480.678,227.144 484.549,225.983 C496.329,222.457 523.708,222.252 543.026,246.717 C551.534,257.494 553.98,272.695 553.387,283.334 C553.61,283.343 553.825,283.342 554.055,283.353 L554.09,283.354 C556.836,283.504 559.928,283.98 563.137,284.929 C566.348,285.869 569.65,287.288 572.891,289.049 C576.139,290.804 579.329,292.89 582.538,294.985 C585.748,297.068 588.999,299.185 592.45,300.699 C595.889,302.224 599.565,303.011 603.251,302.502 C607.072,301.862 611.017,300.825 614.724,299.494 C618.456,298.181 622.025,296.561 625.44,294.847 C628.861,293.143 632.132,291.347 635.364,289.832 C638.59,288.315 641.814,287.103 644.927,286.565 C648.029,285.971 650.957,286.102 653.45,286.512 C655.947,286.945 658.061,287.591 659.728,288.272 C661.407,288.932 662.688,289.534 663.542,289.979 C664.4,290.415 664.859,290.646 664.859,290.646 M392.374,137.019 C392.959,137.459 393.528,137.93 393.985,138.416 L394.243,138.678 C394.245,138.684 394.412,138.821 394.517,138.887 C394.651,138.98 394.708,138.999 394.803,139.049 C395.14,139.206 395.438,139.274 395.708,139.321 C396.247,139.403 396.714,139.399 397.168,139.381 C398.957,139.271 400.576,138.915 402.224,138.541 C403.838,138.14 405.47,137.735 407.117,137.326 C408.729,136.938 410.417,136.512 411.892,136.393 L412.059,136.383 C411.994,137.113 411.905,137.894 411.808,138.664 C411.546,140.643 411.252,142.629 410.956,144.612 C410.746,146.007 410.534,147.404 410.333,148.788 C410.082,150.464 409.859,152.134 409.658,153.792 C409.59,154.374 409.527,154.948 409.466,155.526 C409.349,156.601 409.246,157.679 409.21,158.797 C409.215,159.263 409.159,159.602 409.331,160.364 C409.375,160.502 409.421,160.613 409.466,160.733 C409.584,161.046 409.703,161.328 409.814,161.596 C410.137,162.321 410.455,163.041 410.771,163.753 C410.915,164.071 411.052,164.381 411.193,164.695 C411.676,165.774 412.148,166.841 412.584,167.884 C413.144,169.233 413.653,170.554 414.083,171.839 C414.515,173.115 414.884,174.385 414.979,175.531 C415.088,176.561 414.603,177.701 414.189,178.755 C413.748,179.813 413.265,180.807 412.789,181.73 C411.829,183.573 410.936,185.163 410.184,186.462 C408.675,189.063 407.767,190.527 407.767,190.527 C407.767,190.527 408.861,189.198 410.638,186.76 C411.52,185.534 412.583,184.041 413.697,182.246 C414.256,181.35 414.832,180.38 415.387,179.309 C415.661,178.771 415.921,178.204 416.148,177.584 C416.256,177.304 416.387,176.875 416.44,176.588 C416.524,176.217 416.541,175.835 416.546,175.475 C416.425,172.637 415.471,169.973 414.485,167.147 C414.119,166.137 413.725,165.112 413.32,164.081 C413.163,163.677 413.008,163.277 412.847,162.872 C412.558,162.155 412.266,161.432 411.972,160.702 C411.83,160.338 411.679,159.973 411.607,159.707 C411.605,159.687 411.578,159.214 411.607,158.877 C411.813,155.829 412.425,152.496 412.915,149.179 C413.146,147.683 413.389,146.175 413.628,144.659 C413.922,142.794 414.213,140.916 414.48,139.019 C414.595,138.153 414.716,137.3 414.775,136.368 C414.79,136.079 414.797,135.795 414.789,135.606 C414.78,135.25 414.649,134.805 414.373,134.486 C414.112,134.171 413.808,134.007 413.59,133.917 C412.696,133.607 412.229,133.706 411.709,133.715 C409.77,133.898 408.146,134.355 406.474,134.763 C404.841,135.183 403.221,135.6 401.618,136.011 C400.042,136.388 398.455,136.778 397.026,136.89 C396.676,136.915 396.337,136.916 396.084,136.883 C395.963,136.868 395.869,136.839 395.848,136.831 L395.847,136.83 L395.842,136.83 L395.739,136.728 C395.091,136.08 394.423,135.578 393.757,135.104 C392.423,134.178 391.082,133.405 389.759,132.701 C387.114,131.298 384.593,130.076 382.239,129.011 C377.531,126.9 373.611,125.142 370.866,123.912 C368.13,122.668 366.588,121.898 366.588,121.898 C366.588,121.898 366.947,122.137 367.618,122.585 C368.293,123.031 369.291,123.673 370.589,124.442 C373.169,126.006 376.952,128.072 381.479,130.527 C383.726,131.777 386.188,133.078 388.684,134.59 C389.925,135.347 391.183,136.147 392.374,137.019 M349.119,208.982 C347.898,206.873 346.386,204.89 344.731,202.973 C343.004,201.126 341.186,199.316 339.157,197.644 C338.652,197.22 338.151,196.795 337.644,196.368 C337.129,195.975 336.616,195.58 336.099,195.183 C335.079,194.386 333.983,193.602 333.048,192.806 C331.129,191.187 329.451,189.268 328.104,187.089 C327.447,186.039 326.87,184.931 326.346,183.784 C325.786,182.558 325.285,181.286 324.825,179.983 C323.92,177.463 323.174,174.817 322.028,172.18 C321.436,170.873 320.745,169.556 319.797,168.359 L319.638,168.158 L319.558,168.057 L319.519,168.007 L319.409,167.883 C319.192,167.637 318.915,167.442 318.636,167.291 C318.067,167.004 317.512,166.932 317.04,166.927 C316.087,166.932 315.333,167.151 314.608,167.384 C312.389,168.174 310.485,169.251 308.64,170.375 C308.139,170.683 307.639,170.992 307.14,171.301 C302.539,174.231 298.301,177.438 294.177,180.498 C290.057,183.563 286.15,186.609 282.414,189.452 C278.679,192.296 275.125,194.952 271.797,197.33 C268.461,199.696 265.382,201.833 262.584,203.619 C259.786,205.401 257.265,206.827 255.116,207.849 C253.201,208.755 251.617,209.349 250.408,209.679 C250.26,209.719 250.095,209.771 249.958,209.803 C248.717,210.106 248.028,210.129 248.028,210.129 C248.028,210.129 248.715,210.158 249.989,209.947 C250.115,209.926 250.272,209.891 250.408,209.863 C251.655,209.624 253.325,209.163 255.329,208.332 C259.782,206.497 265.83,203.163 272.663,198.587 C279.508,194.025 287.302,188.433 295.59,182.422 C296.956,181.436 298.348,180.443 299.75,179.452 C302.607,177.435 305.532,175.426 308.537,173.514 C310.776,172.129 313.116,170.717 315.444,169.914 C316.011,169.728 316.593,169.597 317.013,169.603 C317.219,169.605 317.354,169.649 317.398,169.67 L317.43,169.699 L317.407,169.667 L317.447,169.718 L317.525,169.819 L317.685,170.02 C318.431,170.972 319.023,172.096 319.549,173.279 C320.601,175.655 321.369,178.28 322.313,180.883 C322.954,182.666 323.693,184.446 324.573,186.163 C324.978,186.951 325.405,187.73 325.881,188.483 C327.381,190.873 329.26,193.027 331.413,194.767 C332.504,195.661 333.56,196.382 334.602,197.17 C335.126,197.557 335.648,197.941 336.167,198.326 C336.654,198.724 337.142,199.121 337.625,199.515 C341.508,202.683 344.951,206.188 347.37,210.022 C348.575,211.942 349.464,213.964 349.985,216.009 C350.267,217.03 350.418,218.058 350.55,219.103 C350.625,219.623 350.663,220.167 350.803,220.753 C350.931,221.298 351.078,221.802 351.229,222.303 C352.454,226.27 353.825,229.773 355.102,232.868 C356.378,235.957 357.566,238.619 358.622,240.776 C359.671,242.936 360.626,244.575 361.384,245.622 C361.761,246.145 362.098,246.514 362.361,246.72 C362.625,246.933 362.805,246.955 362.805,246.955 C362.805,246.955 362.627,246.919 362.386,246.689 C362.145,246.466 361.843,246.08 361.513,245.535 C360.841,244.449 360.054,242.745 359.124,240.549 C358.203,238.349 357.179,235.636 356.092,232.494 C355.551,230.922 354.997,229.241 354.435,227.467 C353.859,225.696 353.267,223.825 352.745,221.873 C352.619,221.387 352.493,220.892 352.4,220.411 C352.308,219.976 352.283,219.46 352.228,218.922 C352.129,217.85 352.002,216.714 351.734,215.591 C351.242,213.333 350.343,211.088 349.119,208.982 M362.805,237.467 C362.805,237.467 363.099,238.013 363.538,238.828 C363.747,239.238 363.998,239.71 364.244,240.223 C364.496,240.733 364.746,241.285 364.97,241.842 C365.205,242.398 365.39,242.969 365.555,243.507 C365.704,244.048 365.806,244.56 365.882,245.008 C365.896,245.232 365.924,245.437 365.946,245.624 C365.975,245.811 365.951,245.97 365.959,246.104 C365.959,246.373 365.968,246.533 365.968,246.533 C365.968,246.533 366.018,246.387 366.09,246.121 C366.116,245.987 366.181,245.826 366.198,245.636 C366.224,245.446 366.252,245.228 366.27,244.989 C366.282,244.514 366.247,243.954 366.136,243.367 C366.02,242.783 365.83,242.176 365.6,241.589 C365.349,241.01 365.08,240.438 364.767,239.938 C364.471,239.431 364.15,238.986 363.861,238.617 C363.274,237.883 362.805,237.467 362.805,237.467 M366.086,235.266 C366.086,235.266 366.154,235.368 366.272,235.548 C366.4,235.719 366.546,235.987 366.738,236.291 C366.93,236.594 367.123,236.967 367.348,237.347 C367.519,237.757 367.796,238.144 367.944,238.594 C368.126,239.026 368.333,239.45 368.447,239.878 C368.568,240.298 368.759,240.682 368.81,241.035 C368.972,241.729 369.131,242.212 369.131,242.212 C369.131,242.212 369.186,241.728 369.194,240.976 C369.227,240.595 369.104,240.174 369.021,239.712 C368.963,239.486 368.944,239.236 368.838,239.013 C368.746,238.785 368.654,238.551 368.563,238.318 C368.389,237.847 368.09,237.436 367.854,237.034 C367.728,236.839 367.573,236.669 367.441,236.501 C367.311,236.334 367.182,236.178 367.042,236.052 C366.52,235.518 366.086,235.266 366.086,235.266 M241.339,198.323 C241.586,199.047 241.354,199.79 241.142,200.486 C240.886,201.181 240.593,201.858 240.247,202.514 C239.572,203.83 238.803,205.101 237.994,206.342 C236.361,208.816 234.605,211.211 232.755,213.53 C230.901,215.843 228.999,218.118 226.993,220.295 C224.992,222.473 222.919,224.583 220.746,226.555 C219.66,227.541 218.533,228.473 217.375,229.335 C216.24,230.186 214.973,230.95 213.714,231.769 C211.219,233.382 208.695,235.006 206.23,236.734 C201.324,240.19 196.49,244.047 192.861,249.123 C191.063,251.648 189.584,254.478 188.764,257.533 L188.461,258.678 L188.386,258.964 L188.328,259.271 L188.226,259.819 L187.819,262.018 L187.002,266.413 C186.692,267.858 186.547,269.391 186.362,270.899 L186.095,273.167 L185.971,274.301 L185.932,275.435 L185.787,279.96 L185.743,284.422 C185.729,287.397 185.533,290.277 185.179,293.215 C184.821,296.137 184.307,299.044 183.665,301.925 C183.039,304.809 182.274,307.668 181.347,310.469 C180.876,311.864 180.384,313.257 179.803,314.599 C179.511,315.269 179.197,315.929 178.847,316.551 C178.668,316.858 178.482,317.161 178.277,317.421 C178.103,317.699 177.773,317.895 177.792,317.894 L177.432,318.029 C177.045,318.427 176.627,318.811 176.196,319.185 C175.867,319.47 175.529,319.749 175.181,320.007 C174.375,320.597 173.511,321.129 172.574,321.42 C172.341,321.491 172.104,321.55 171.864,321.576 C171.626,321.608 171.383,321.616 171.148,321.585 C170.911,321.565 170.677,321.502 170.461,321.401 C170.242,321.308 170.033,321.178 169.855,321.009 C169.664,320.857 169.513,320.655 169.365,320.457 C169.224,320.249 169.094,320.033 168.991,319.799 C168.769,319.343 168.626,318.85 168.495,318.353 C168.584,318.858 168.685,319.365 168.872,319.851 C168.957,320.097 169.07,320.331 169.2,320.561 C169.338,320.782 169.481,321.011 169.675,321.196 C169.855,321.396 170.076,321.565 170.315,321.691 C170.553,321.828 170.818,321.923 171.087,321.969 C171.629,322.078 172.183,322.024 172.704,321.904 C173.753,321.659 174.698,321.156 175.585,320.599 C175.783,320.474 175.966,320.331 176.158,320.199 C176.781,319.768 177.381,319.306 177.954,318.788 C178.219,318.739 178.409,318.618 178.555,318.51 C178.742,318.366 178.896,318.212 179.027,318.057 C179.304,317.746 179.526,317.425 179.74,317.1 C180.161,316.448 180.526,315.777 180.87,315.1 C181.549,313.743 182.146,312.355 182.683,310.948 C183.759,308.135 184.667,305.263 185.438,302.354 C186.203,299.442 186.815,296.491 187.283,293.508 C187.752,290.543 188.051,287.472 188.109,284.486 L188.241,280.01 L188.469,275.601 L188.528,274.501 L188.668,273.417 L188.946,271.248 C189.132,269.802 189.27,268.362 189.595,266.891 L190.861,260.307 L190.967,259.758 L191.014,259.517 L191.084,259.263 L191.361,258.25 C192.122,255.555 193.391,253.001 195.038,250.669 C196.674,248.331 198.662,246.208 200.823,244.261 C202.986,242.311 205.282,240.48 207.666,238.743 C210.048,237.001 212.506,235.351 214.984,233.679 C216.201,232.838 217.461,232.019 218.685,231.045 C219.887,230.087 221.026,229.078 222.113,228.024 C224.295,225.927 226.326,223.702 228.246,221.392 C230.17,219.086 232.017,216.723 233.744,214.272 C235.466,211.819 237.128,209.321 238.587,206.702 C239.313,205.39 240.012,204.059 240.587,202.67 C240.882,201.979 241.122,201.263 241.322,200.54 C241.481,199.822 241.647,199.015 241.339,198.323 M167.722,315.478 C168.099,315.025 168.484,314.578 168.771,314.108 C169.053,313.637 169.307,313.191 169.456,312.774 C169.801,311.961 169.85,311.35 169.85,311.35 C169.85,311.35 169.397,311.754 168.806,312.353 C168.519,312.663 168.163,312.999 167.827,313.385 C167.669,313.587 167.452,313.748 167.282,313.955 C167.101,314.148 166.926,314.356 166.737,314.548 C166.547,314.738 166.36,314.93 166.175,315.118 C165.981,315.294 165.835,315.528 165.636,315.677 C165.444,315.838 165.276,316.014 165.109,316.18 C164.937,316.331 164.8,316.53 164.637,316.646 C164.004,317.145 163.581,317.619 163.581,317.619 C163.581,317.619 164.164,317.58 165.041,317.312 C165.267,317.259 165.463,317.126 165.691,317.007 C165.915,316.884 166.156,316.755 166.392,316.602 C166.871,316.306 167.274,315.87 167.722,315.478 M163.179,311.459 C163.472,311.32 163.779,311.192 164.065,311.034 C164.624,310.694 165.164,310.328 165.599,309.907 C166.048,309.502 166.411,309.071 166.695,308.684 C167.265,307.908 167.478,307.282 167.478,307.282 C167.478,307.282 166.917,307.616 166.157,308.126 C165.779,308.372 165.339,308.658 164.866,308.966 C164.64,309.125 164.388,309.261 164.147,309.417 C163.91,309.581 163.65,309.709 163.4,309.853 C163.154,310.004 162.896,310.126 162.648,310.261 C162.387,310.357 162.15,310.512 161.901,310.603 C161.651,310.68 161.417,310.812 161.182,310.876 C160.947,310.934 160.724,311.031 160.512,311.079 C160.301,311.117 160.101,311.167 159.92,311.213 C159.738,311.249 159.58,311.256 159.443,311.279 C159.172,311.318 159.005,311.35 159.005,311.35 C159.005,311.35 159.144,311.428 159.405,311.546 C159.665,311.683 160.059,311.791 160.56,311.855 C161.055,311.907 161.651,311.883 162.261,311.742 C162.565,311.668 162.872,311.573 163.179,311.459 M170.299,203.753 C171.748,203.135 173.151,202.408 174.569,201.715 C175.999,201.047 177.357,200.23 178.754,199.486 C180.142,198.724 181.468,197.842 182.829,197.024 L183.03,196.903 L183.18,196.638 C184.843,193.694 186.566,190.786 188.392,187.947 C188.91,187.14 189.433,186.338 189.968,185.545 C192.391,181.955 195.009,178.503 197.822,175.222 C199.237,173.586 200.691,171.988 202.194,170.421 L204.471,168.051 C204.854,167.65 205.236,167.24 205.619,166.796 C205.998,166.368 206.409,165.807 206.691,165.392 C207.478,164.251 208.281,163.127 209.091,162.011 C210.829,159.621 212.627,157.287 214.532,155.039 C215.747,153.609 217.013,152.226 218.309,150.873 C222.98,146.011 228.171,141.672 233.862,138.057 C241.123,133.423 249.11,129.957 257.377,127.412 C261.519,126.159 265.732,125.13 269.981,124.263 C274.24,123.437 278.532,122.771 282.844,122.227 C287.159,121.709 291.495,121.311 295.842,121.079 L299.103,120.907 C300.212,120.867 301.406,120.7 302.491,120.478 C304.689,120.034 306.804,119.422 308.913,118.796 C313.118,117.521 317.261,116.114 321.413,114.757 C325.555,113.418 329.709,111.958 333.945,111.243 C334.471,111.17 335.001,111.108 335.516,111.113 C335.988,111.095 336.583,111.205 337.111,111.243 C338.206,111.344 339.248,111.533 340.319,111.728 C342.455,112.122 344.56,112.695 346.645,113.328 C350.809,114.61 354.898,116.186 358.849,118.057 C354.969,116.042 350.949,114.274 346.793,112.863 C344.715,112.164 342.612,111.524 340.459,111.061 C339.386,110.834 338.277,110.603 337.2,110.474 C336.641,110.414 336.156,110.3 335.533,110.287 C334.954,110.263 334.393,110.311 333.833,110.366 C329.411,110.963 325.225,112.286 321.012,113.485 C316.818,114.741 312.653,116.071 308.463,117.242 C306.368,117.815 304.264,118.375 302.164,118.752 C301.104,118.943 300.125,119.062 299.045,119.082 L295.755,119.186 C291.364,119.326 286.978,119.635 282.601,120.066 C273.848,120.945 265.15,122.587 256.672,125.082 C248.215,127.619 239.987,131.116 232.461,135.845 C228.701,138.204 225.113,140.853 221.773,143.785 C218.458,146.745 215.372,149.954 212.529,153.35 C209.691,156.747 207.073,160.328 204.61,163.957 C203.523,165.592 201.877,167.092 200.396,168.711 C198.883,170.31 197.405,171.957 195.971,173.64 C191.48,178.952 187.519,184.679 184.023,190.66 C183.119,192.209 182.239,193.772 181.397,195.353 C180.169,196.134 178.971,196.959 177.708,197.688 C176.358,198.443 175.05,199.269 173.658,199.956 C172.28,200.665 170.918,201.407 169.502,202.048 C168.097,202.709 166.702,203.392 165.265,203.988 C163.836,204.602 162.417,205.239 160.962,205.795 C159.513,206.362 158.077,206.964 156.606,207.478 C155.139,208.001 153.689,208.573 152.206,209.051 C150.726,209.536 149.257,210.063 147.766,210.516 L143.296,211.897 L138.798,213.186 L134.268,214.367 L129.709,215.436 L125.123,216.392 C123.591,216.691 122.049,216.942 120.512,217.22 C118.972,217.481 117.425,217.695 115.88,217.936 L111.219,218.487 L115.9,218.151 C117.456,217.981 119.019,217.846 120.575,217.648 C122.124,217.424 123.679,217.225 125.227,216.977 L129.86,216.179 L134.474,215.263 L139.065,214.233 C142.113,213.491 145.157,212.726 148.169,211.841 C149.682,211.419 151.169,210.919 152.672,210.461 C154.178,210.013 155.651,209.465 157.142,208.971 C158.637,208.481 160.1,207.906 161.575,207.362 C163.055,206.834 164.505,206.22 165.963,205.629 C167.428,205.055 168.86,204.394 170.299,203.753 M399.125,187.815 C399.125,187.815 395.032,176.476 395.514,178.971 C396.167,182.372 392.635,189.871 399.125,187.815 M392.262,200.948 C391.729,201.166 391.232,201.342 390.758,201.493 C391.635,203.103 392.827,205.42 393.847,207.828 C394.303,208.932 394.735,210.046 395.073,211.113 C395.226,211.652 395.413,212.16 395.513,212.666 C395.624,213.169 395.755,213.636 395.797,214.086 C395.856,214.53 395.932,214.934 395.912,215.3 C395.9,215.664 395.953,215.983 395.885,216.24 C395.789,216.752 395.735,217.043 395.735,217.043 C395.735,217.043 395.769,216.75 395.825,216.235 C395.876,215.981 395.802,215.664 395.788,215.31 C395.781,214.951 395.678,214.555 395.589,214.124 C395.516,213.689 395.354,213.235 395.21,212.753 C395.077,212.266 394.857,211.774 394.668,211.259 C394.261,210.233 393.757,209.167 393.232,208.113 C392.161,206.014 390.947,203.99 390.004,202.497 C389.852,202.257 389.709,202.035 389.574,201.825 C389.104,201.933 388.664,202.012 388.253,202.056 C388.384,202.745 388.495,203.506 388.642,204.299 C388.706,204.846 388.773,205.411 388.843,205.985 C388.903,206.56 388.997,207.139 389.011,207.727 C389.041,208.311 389.071,208.896 389.101,209.474 C389.146,210.048 389.148,210.614 389.12,211.165 C389.067,212.261 389.113,213.284 388.986,214.153 C388.767,215.888 388.618,217.043 388.618,217.043 C388.618,217.043 388.682,215.883 388.774,214.142 C388.839,213.276 388.719,212.258 388.692,211.178 C388.682,210.634 388.639,210.076 388.552,209.512 C388.481,208.948 388.409,208.374 388.336,207.801 C388.281,207.228 388.148,206.663 388.047,206.104 C387.938,205.547 387.834,205 387.729,204.469 C387.509,203.621 387.331,202.816 387.135,202.103 C386.783,202.094 386.453,202.058 386.136,202.005 C385.766,203.174 385.332,204.445 384.839,205.709 C384.447,206.727 384.009,207.723 383.574,208.646 C383.127,209.566 382.668,210.4 382.245,211.099 C381.801,211.782 381.432,212.352 381.12,212.712 C380.824,213.08 380.653,213.291 380.653,213.291 C380.653,213.291 380.806,213.068 381.072,212.677 C381.354,212.298 381.675,211.701 382.06,210.994 C382.424,210.272 382.813,209.415 383.18,208.476 C383.537,207.532 383.891,206.518 384.198,205.487 C384.583,204.215 384.909,202.941 385.181,201.77 C384.286,201.48 383.496,201.032 382.688,200.525 C382.07,200.138 378.867,196.908 379.003,196.034 C379.05,195.726 382.272,197.877 382.348,197.549 C382.867,195.301 383.643,192.878 379.119,193.875 C377.67,194.195 377.169,194.448 376.58,194.979 C376.357,195.175 377.911,197.269 377.773,197.432 C376.332,196.797 375.621,196.633 375.053,196.211 C374.308,195.653 367.774,196.91 369.358,191.148 C370.178,188.164 357.641,185.662 359.555,168.874 C356.813,170.068 354.14,171.713 352.043,173.402 C350.123,179.699 349.251,186.715 349.251,192.053 C348.799,194.538 356.705,212.612 360.095,217.809 C363.482,223.006 369.608,232.986 370.262,235.886 C371.05,239.388 368.228,255.768 362.805,250.345 C357.383,244.922 351.055,237.467 351.508,231.594 C351.813,227.601 347.667,223.231 346.763,216.23 C346.011,210.392 331.291,200.474 324.448,194.715 C327.939,206.171 344.055,213.351 345.637,218.828 C347.558,225.493 345.069,233.172 345.069,233.172 C341.454,238.369 334.335,246.955 331.625,245.601 C328.915,244.243 325.525,237.241 327.105,234.304 C328.687,231.367 335.467,225.038 333.434,222.327 C331.4,219.616 304.512,208.32 301.348,206.75 C299.217,205.693 299.828,194.353 299.971,186.366 C285.37,195.583 265.69,218.928 247.022,220.135 C241.388,227.769 229.979,239.881 222.587,244.826 C212.458,251.608 197.847,259.796 195.121,272.805 C192.049,287.458 192.598,289.659 192.326,299.181 C191.88,314.74 184.004,326.188 181.866,326.032 C181.866,326.032 178.826,328.147 176.973,324.019 C175.01,326.385 172.62,327.398 169.772,325.393 C162.958,320.597 150.783,313.929 162.394,300.167 C174.007,286.402 159.557,247.676 164.427,224.249 C164.976,221.613 165.671,218.934 166.484,216.236 C153.941,220.69 138.608,224.769 119.79,228.186 C107.027,230.503 95.66,231.483 85.583,231.483 C32.106,231.483 14.625,203.939 13.781,202.551 C2.407,187.169 16.01,178.797 27.678,194.093 C27.68,194.093 32.674,201.66 45.801,207.66 C58.248,213.351 80.686,218.753 116.883,212.179 C140.8,207.838 160.237,202.197 174.995,195.342 C182.137,181.336 191.569,168.511 200.806,160.421 C232.719,109.359 288.129,116.588 322.926,108.003 C357.722,99.417 375.909,126.455 399.858,133.234 C399.858,133.234 420.001,124.616 419.283,131.051 C418.959,133.963 417.801,139.536 416.63,144.767 C422.525,145.04 429.684,145.77 428.146,147.718 C425.968,150.477 418.967,159.823 417.015,162.459 C419.251,167.645 420.806,174.359 420.253,177.486 C419.459,181.992 410.45,192.172 407.855,194.738 C405.262,197.307 397.484,198.831 392.262,200.948 M395.871,136.849 L395.854,136.838 L395.903,136.884 L395.871,136.849 M395.894,136.879 L395.85,136.835 L395.846,136.832 L395.861,136.849 L395.894,136.879 z M446.807,302.486 C446.896,302.353 446.98,302.23 447.063,302.116 C446.829,302.142 446.6,302.193 446.397,302.284 L445.675,302.605 L445.908,301.851 C446.274,300.656 450.008,299.666 455.246,298.395 C457.005,297.971 458.668,297.568 459.094,297.345 C459.255,297.26 459.279,297.162 459.279,297.069 C459.28,296.249 457.263,293.802 449.69,289.83 C444.818,287.273 443.827,283.35 443.298,281.24 C443.164,280.705 442.997,280.038 442.859,279.949 C442.822,279.958 442.562,280.043 441.734,281.059 C440.897,282.084 439.938,282.804 438.951,283.322 C442.406,287.895 451,291.44 450.087,294.87 C449.686,296.382 435.471,297.174 434.967,298.815 C436.097,298.309 438.932,299.264 438.142,300.038 C437.35,300.812 430.095,302.246 431.739,302.75 C433.383,303.251 438.356,301.393 441.272,302.49 C444.187,303.584 439.429,303.612 439.586,304.57 C439.744,305.527 445.39,304.609 446.807,302.486 M448.197,302.17 C448.142,302.358 448.088,302.548 448.035,302.728 C448.301,302.601 448.503,302.486 448.585,302.405 L448.646,302.331 C448.603,302.279 448.43,302.218 448.197,302.17 M492.298,291.468 C492.902,287.684 491.565,285.213 490.338,283.809 C490.219,283.671 490.097,283.541 489.975,283.415 C491.418,285.98 490.766,289.817 489.855,293.08 C490.614,292.918 491.398,292.719 492.204,292.484 C492.215,292.159 492.24,291.826 492.298,291.468 M502.297,304.713 C501.296,305.198 500.245,305.582 499.251,305.7 C497.142,305.033 500.07,301.798 500.07,301.798 C500.07,301.798 496.257,305.558 494.353,305.274 C494.608,303.728 496.518,301.127 496.518,301.127 C496.518,301.127 491.77,303.126 490.694,303.033 C491.331,301.282 493.714,298.164 495.723,297.809 C497.266,297.536 498.662,297.215 499.944,296.86 C505.559,295.998 512.95,292.602 517.659,289.8 C522.192,287.101 521.587,283.732 520.998,280.475 C520.859,279.694 520.713,278.89 520.65,278.118 C520.451,275.706 521.416,272.336 523.592,270.843 C524.744,270.051 526.09,269.854 527.604,270.257 C525.972,270.486 524.785,271.04 524.006,271.935 C522.369,273.812 522.748,276.853 523.186,280.372 C524.126,287.938 525.296,297.355 506.94,300.598 C505.255,300.894 503.363,302.926 502.297,304.713" fill="#0B0B09"/>
    <path d="M465.038,253.926 C467.401,252.964 469.679,251.998 471.829,251.056 C473.979,250.111 476.007,249.195 477.84,248.248 C478.752,247.768 479.626,247.295 480.406,246.714 C480.605,246.572 480.784,246.41 480.973,246.229 C481.117,246.07 481.31,245.897 481.44,245.606 C481.509,245.481 481.56,245.208 481.401,244.994 C481.24,244.814 481.08,244.78 480.951,244.747 C480.688,244.689 480.472,244.704 480.249,244.706 C478.54,244.84 477.149,245.19 475.968,245.37 C474.796,245.564 473.867,245.691 473.232,245.656 C472.917,245.646 472.675,245.585 472.539,245.495 C472.396,245.415 472.374,245.314 472.363,245.325 C472.375,245.314 472.389,245.417 472.527,245.513 C472.661,245.615 472.906,245.698 473.227,245.735 C473.868,245.816 474.817,245.781 476.005,245.646 C477.19,245.537 478.646,245.271 480.256,245.242 C480.448,245.25 480.659,245.256 480.812,245.304 L480.895,245.334 L480.882,245.356 C480.825,245.469 480.683,245.609 480.511,245.77 C480.361,245.893 480.193,246.033 480.003,246.152 C479.259,246.641 478.393,247.09 477.479,247.522 C473.807,249.259 469.314,250.869 464.567,252.769 C463.379,253.246 462.17,253.729 460.948,254.263 L460.025,254.688 C459.867,254.769 459.714,254.845 459.549,254.939 L459.281,255.102 L459.045,255.311 L458.901,255.487 L458.866,255.538 C458.716,255.992 458.813,255.836 458.802,256.015 C458.824,256.129 458.853,256.176 458.876,256.221 C458.936,256.326 459.01,256.407 459.038,256.433 L459.16,256.535 C459.298,256.63 459.396,256.676 459.491,256.721 C459.679,256.807 459.85,256.87 460.02,256.927 C460.357,257.044 460.685,257.141 461.014,257.234 C463.635,257.958 466.275,258.561 468.846,259.363 C470.121,259.753 471.418,260.175 472.497,260.775 C472.759,260.926 473,261.095 473.162,261.258 C473.326,261.443 473.318,261.496 473.313,261.493 C473.378,261.461 473.081,261.797 472.859,262.012 C472.639,262.249 472.396,262.475 472.16,262.702 C470.256,264.523 468.18,266.136 466.117,267.596 C464.048,269.052 461.966,270.345 459.94,271.481 C458.924,272.044 457.929,272.58 456.935,273.044 C455.96,273.542 454.989,273.958 454.054,274.357 C453.129,274.781 452.207,275.092 451.345,275.431 C450.485,275.783 449.648,276.051 448.86,276.303 C447.298,276.854 445.893,277.17 444.743,277.485 C443.588,277.769 442.662,277.936 442.039,278.076 C441.411,278.21 441.079,278.28 441.079,278.28 C441.079,278.28 441.416,278.236 442.053,278.152 C442.684,278.055 443.621,277.984 444.795,277.759 C445.963,277.511 447.406,277.275 449.011,276.813 C449.82,276.605 450.682,276.386 451.57,276.082 C452.461,275.793 453.402,275.496 454.355,275.105 C455.315,274.734 456.318,274.35 457.324,273.881 C458.348,273.445 459.378,272.937 460.433,272.404 C462.53,271.319 464.714,270.103 466.83,268.62 C468.953,267.152 471.083,265.542 473.081,263.675 C473.331,263.439 473.585,263.211 473.826,262.958 L474.193,262.585 C474.315,262.44 474.293,262.48 474.407,262.318 C474.502,262.185 474.563,262.046 474.614,261.904 C474.72,261.602 474.693,261.225 474.579,260.951 C474.469,260.676 474.313,260.478 474.158,260.309 C473.846,259.987 473.521,259.771 473.198,259.577 C471.904,258.843 470.59,258.416 469.269,257.99 C466.624,257.191 463.937,256.619 461.374,255.94 C461.176,255.887 460.987,255.828 460.795,255.769 L461.478,255.443 C462.661,254.912 463.857,254.414 465.038,253.926 M423.841,260.409 C424.775,258.377 425.805,256.39 426.938,254.47 C428.066,252.546 429.322,250.706 430.678,248.951 C433.373,245.448 436.637,242.325 440.528,240.317 C442.152,239.47 443.883,238.866 445.66,238.463 C446.002,238.385 446.344,238.303 446.688,238.24 C448.828,237.86 451.028,237.835 453.2,238.102 L453.545,238.144 L453.775,237.896 C456,235.526 458.041,233.01 460.131,230.582 L460.251,230.447 C461.266,229.29 462.28,228.137 463.379,227.095 C464.52,226.025 465.767,225.049 467.184,224.536 C467.891,224.288 468.633,224.169 469.379,224.21 C469.735,224.232 470.175,224.273 470.396,224.401 C470.7,224.548 470.998,224.77 471.268,225.025 C472.35,226.081 473.106,227.517 473.608,228.997 C474.103,230.489 474.312,232.088 474.21,233.676 C474.104,235.264 473.71,236.839 473.06,238.313 C473.814,236.894 474.346,235.328 474.533,233.706 C474.726,232.085 474.604,230.419 474.171,228.827 C473.736,227.239 473.028,225.692 471.83,224.452 C471.525,224.147 471.186,223.862 470.768,223.644 C470.271,223.393 469.88,223.385 469.441,223.328 C468.579,223.252 467.698,223.362 466.877,223.621 C465.229,224.159 463.854,225.184 462.62,226.265 C461.587,227.172 460.655,228.161 459.751,229.166 C459.567,229.368 459.379,229.563 459.199,229.768 C457.132,232.115 455.146,234.497 453.023,236.733 C450.846,236.471 448.624,236.478 446.447,236.839 C446.105,236.894 445.771,236.977 445.434,237.05 C443.5,237.471 441.63,238.176 439.889,239.096 C435.784,241.277 432.434,244.576 429.703,248.21 C428.336,250.036 427.144,251.98 426.055,253.969 C424.969,255.961 424,258.011 423.127,260.095 C422.243,262.177 421.511,264.316 420.837,266.469 C420.169,268.623 419.59,270.804 419.144,273.01 C419.772,270.849 420.475,268.714 421.252,266.609 C422.029,264.505 422.917,262.446 423.841,260.409 M490.05,229.731 C490.71,229.646 491.44,229.555 492.236,229.453 C493.037,229.392 493.902,229.325 494.825,229.253 C496.677,229.152 498.765,229.128 501.038,229.191 C502.173,229.252 503.355,229.328 504.573,229.444 C505.787,229.609 507.049,229.715 508.321,229.978 C510.89,230.393 513.535,231.122 516.224,231.989 C518.916,232.852 521.588,234.068 524.188,235.48 C526.796,236.89 529.292,238.596 531.592,240.532 C533.909,242.443 536.101,244.529 537.979,246.827 C539.854,249.115 541.577,251.489 542.953,253.963 C544.345,256.423 545.564,258.881 546.509,261.305 C546.746,261.91 546.981,262.507 547.213,263.094 C547.412,263.694 547.608,264.286 547.799,264.867 C548.212,266.022 548.498,267.172 548.802,268.269 C549.128,269.361 549.313,270.436 549.553,271.447 C549.803,272.457 549.961,273.43 550.116,274.343 C550.471,276.165 550.61,277.779 550.784,279.103 C550.925,280.43 550.986,281.477 551.052,282.188 C551.11,282.902 551.141,283.284 551.141,283.284 C551.141,283.284 551.136,282.901 551.13,282.186 C551.108,281.471 551.144,280.416 551.063,279.081 C550.959,277.747 550.906,276.117 550.648,274.267 C550.452,272.407 550.104,270.322 549.586,268.076 C549.318,266.955 549.065,265.78 548.686,264.595 C548.509,263.998 548.328,263.391 548.146,262.774 C547.931,262.169 547.71,261.554 547.49,260.93 C547.075,259.669 546.504,258.432 545.972,257.146 C545.706,256.501 545.363,255.884 545.049,255.246 C544.727,254.612 544.418,253.965 544.037,253.347 C542.654,250.799 540.915,248.343 539.011,245.97 C537.106,243.588 534.877,241.413 532.507,239.421 C530.115,237.452 527.523,235.724 524.828,234.303 C522.138,232.878 519.384,231.661 516.611,230.805 C513.854,229.92 511.115,229.289 508.487,228.946 C507.18,228.72 505.891,228.652 504.654,228.525 C503.41,228.448 502.209,228.409 501.057,228.384 C499.904,228.416 498.798,228.385 497.748,228.468 C496.702,228.559 495.709,228.605 494.781,228.722 C493.854,228.843 492.987,228.957 492.188,229.061 C491.389,229.205 490.659,229.338 490,229.457 C488.675,229.665 487.673,229.987 486.972,230.138 C486.276,230.307 485.905,230.397 485.905,230.397 C485.905,230.397 486.28,230.333 486.987,230.213 C487.693,230.107 488.725,229.879 490.05,229.731 M431.477,262.642 C432.455,261.626 434.568,260.265 436.902,259.698 C439.235,259.133 440.371,255.83 436.62,254.661 C432.87,253.495 430.621,263.531 431.477,262.642 M543.59,246.272 C524.034,221.501 496.287,221.718 484.342,225.295 C480.521,226.439 478.172,227.913 478.057,229.236 C478.009,229.81 477.962,230.44 477.912,231.109 C477.814,232.393 477.705,233.867 477.542,235.336 C477.662,231.984 476.352,224.644 473.066,221.491 C471.712,220.192 470.175,219.735 468.501,220.123 C465.26,220.883 461.428,223.792 458.259,226.681 C458.404,226.874 458.548,227.072 458.688,227.282 C461.809,224.429 465.57,221.549 468.665,220.824 C470.088,220.486 471.4,220.891 472.567,222.01 C475.925,225.231 477.228,233.622 476.736,236.188 L476.727,236.242 L476.732,236.296 C476.736,236.326 477.056,239.511 474.657,243.28 L474.058,244.224 L475.096,243.808 C477.763,242.737 478.243,236.32 478.628,231.162 C478.678,230.499 478.727,229.87 478.774,229.298 C478.842,228.516 480.679,227.144 484.549,225.983 C496.329,222.457 523.708,222.252 543.026,246.717 C551.535,257.494 553.98,272.695 553.387,283.334 C553.611,283.343 553.824,283.342 554.056,283.353 C554.652,272.519 552.179,257.15 543.59,246.272 M550.567,294.777 C547.668,298.545 536.842,300.538 530.374,301.728 C526.591,302.424 524.9,302.75 524.465,303.194 C523.248,304.445 520.11,306.93 518.703,307.024 C518.445,307.035 518.39,306.953 518.365,306.922 C518.122,306.576 518.416,305.478 518.688,304.844 L519.313,303.398 L518.124,304.43 C518.08,304.465 513.936,308.024 510.573,308.473 C510.266,308.356 510.188,308.193 510.156,308.076 C509.962,307.364 510.951,305.921 511.622,305.178 L511.102,304.682 C510.165,305.604 507.609,307.834 506.095,308.055 C506.551,306.593 508.074,304.506 508.093,304.483 L508.862,303.434 L507.663,303.937 C506.16,304.569 503.732,305.495 502.553,305.75 C503.402,304 505.449,301.592 507.065,301.307 C526.094,297.945 524.827,287.737 523.898,280.284 C523.484,276.936 523.125,274.044 524.548,272.406 C525.427,271.397 526.97,270.891 529.266,270.857 L530.788,270.835 L529.415,270.175 C526.44,268.741 524.386,269.424 523.185,270.249 C520.761,271.914 519.714,275.498 519.932,278.176 C519.999,278.982 520.147,279.806 520.29,280.602 C520.859,283.757 521.395,286.738 517.29,289.181 C510.1,293.458 498.187,298.27 494.218,295.577 C493.111,294.827 492.706,293.482 493.01,291.582 C494.197,284.142 488.399,281.022 486.902,280.647 C486.742,280.609 486.258,280.49 486.128,280.876 C485.995,281.259 486.414,281.527 487.232,281.89 C490.418,283.299 490.929,287.15 488.834,294.01 C487.829,297.31 479.639,299.007 473.657,300.246 C469.372,301.134 466.91,301.676 466.143,302.489 C464.589,304.144 460.778,306.109 459.512,306.533 C459.677,305.889 460.033,304.727 460.273,303.971 L460.324,303.811 L460.236,303.671 C460.171,303.568 460.029,303.457 459.823,303.453 C459.469,303.423 458.971,303.671 457.796,305.428 C456.99,306.628 454.558,307.489 452.674,307.69 C451.854,307.778 451.436,307.704 451.275,307.642 C451.478,307.488 452.082,307.306 452.424,307.202 C453.219,306.962 453.845,306.77 453.863,306.27 C453.878,305.833 453.401,305.564 452.683,305.294 C450.88,304.619 448.457,304.997 446.32,305.327 C445.15,305.51 444.035,305.683 443.325,305.577 C443.889,305.216 445.329,304.637 446.251,304.267 C447.792,303.646 448.752,303.252 449.09,302.919 C449.532,302.486 449.322,302.093 449.248,301.982 C448.98,301.592 448.27,301.394 447.537,301.381 C449.304,300.576 453.12,299.652 455.417,299.095 C457.374,298.622 458.922,298.248 459.426,297.981 C459.795,297.79 459.997,297.467 459.998,297.07 C460.001,295.413 456.273,292.47 450.025,289.192 C445.437,286.786 444.534,283.205 443.997,281.064 C443.73,280.009 443.57,279.372 443.027,279.252 C442.563,279.148 442.074,279.502 441.175,280.603 C437.726,284.83 431.811,283.625 431.765,283.618 C429.552,283.06 427.379,283.14 425.787,283.192 C424.602,283.234 423.479,283.274 423.235,283.012 C423.292,282.712 424.544,282.024 425.215,281.655 C426.555,280.922 427.438,280.437 427.187,279.806 C426.805,278.84 426.147,278.309 423.439,277.899 C422.185,277.708 420.944,278.149 419.932,278.719 L420.196,279.397 C421.114,278.868 422.234,278.448 423.333,278.61 C425.98,279.012 426.284,279.49 426.489,279.998 C426.312,280.234 425.45,280.707 424.869,281.026 C423.486,281.783 422.639,282.286 422.529,282.879 C422.49,283.081 422.544,283.28 422.682,283.442 C423.153,284.005 424.211,283.97 425.813,283.912 C427.445,283.857 429.474,283.784 431.601,284.318 C431.803,284.362 435.543,285.116 438.951,283.322 C439.938,282.804 440.897,282.084 441.733,281.059 C442.563,280.043 442.822,279.958 442.859,279.949 C442.996,280.038 443.164,280.705 443.299,281.24 C443.828,283.35 444.817,287.273 449.691,289.83 C457.264,293.802 459.28,296.249 459.279,297.069 C459.279,297.162 459.256,297.26 459.094,297.345 C458.666,297.568 457.004,297.971 455.247,298.396 C450.008,299.666 446.273,300.656 445.907,301.851 L445.675,302.605 L446.396,302.285 C446.599,302.193 446.829,302.142 447.063,302.116 C447.475,302.07 447.891,302.108 448.198,302.17 C448.43,302.218 448.604,302.279 448.646,302.331 L448.585,302.406 C448.502,302.487 448.3,302.601 448.037,302.728 C447.496,302.99 446.685,303.316 445.983,303.598 C443.366,304.649 442.381,305.103 442.406,305.698 C442.413,305.872 442.507,306.108 442.918,306.234 C443.677,306.47 444.955,306.269 446.432,306.038 C448.381,305.737 450.805,305.36 452.43,305.969 C452.739,306.084 452.92,306.174 453.027,306.236 C452.821,306.33 452.47,306.436 452.215,306.513 C451.323,306.783 450.398,307.061 450.516,307.77 C450.552,307.983 450.71,308.265 451.264,308.386 C452.818,308.727 457.104,307.753 458.393,305.828 C458.796,305.224 459.103,304.839 459.323,304.596 C459.069,305.42 458.736,306.551 458.705,306.888 L458.715,307.19 L458.947,307.294 C459.717,307.643 464.904,304.859 466.667,302.982 C467.314,302.297 470.467,301.642 473.805,300.951 C480.305,299.603 488.393,297.929 489.523,294.221 C489.638,293.851 489.748,293.469 489.855,293.08 C490.766,289.817 491.418,285.98 489.975,283.415 C490.097,283.541 490.219,283.671 490.338,283.809 C491.566,285.213 492.903,287.684 492.299,291.468 C492.24,291.826 492.216,292.16 492.204,292.484 C492.144,294.159 492.676,295.4 493.813,296.172 C495.212,297.12 497.395,297.252 499.945,296.86 C505.559,295.998 512.951,292.602 517.659,289.8 C522.192,287.101 521.587,283.732 520.998,280.475 C520.859,279.694 520.713,278.89 520.65,278.118 C520.451,275.706 521.417,272.336 523.593,270.843 C524.744,270.051 526.089,269.854 527.605,270.257 C525.971,270.486 524.785,271.04 524.007,271.935 C522.369,273.812 522.749,276.853 523.187,280.372 C524.127,287.938 525.297,297.355 506.94,300.598 C505.256,300.894 503.363,302.926 502.299,304.714 C502.016,305.188 501.787,305.647 501.642,306.05 L501.482,306.49 L501.948,306.53 C502.781,306.592 505.323,305.652 506.833,305.052 C506.24,305.978 505.446,307.354 505.283,308.356 L505.226,308.717 L505.585,308.771 C506.718,308.947 508.343,307.924 509.626,306.925 C509.44,307.39 509.351,307.86 509.46,308.266 C509.545,308.572 509.779,308.979 510.428,309.183 L510.502,309.205 L510.578,309.197 C513.199,308.886 516.163,306.865 517.647,305.734 C517.525,306.297 517.491,306.928 517.777,307.336 C517.921,307.54 518.207,307.786 518.752,307.741 C520.497,307.626 523.867,304.838 524.979,303.698 C525.299,303.394 527.945,302.906 530.503,302.435 C537.499,301.147 548.07,299.203 551.136,295.217 C551.896,294.228 552.554,292.616 553.059,290.56 C552.823,290.567 552.58,290.568 552.352,290.581 C551.874,292.425 551.266,293.868 550.567,294.777 M415.084,280.091 C414.686,279.615 414.96,278.724 415.257,278.058 C416.124,276.124 416.7,273.352 417.365,270.142 C417.962,267.272 418.639,264.021 419.65,260.796 C422.664,251.199 429.84,236.102 445.418,233.955 C445.443,233.706 445.471,233.459 445.506,233.215 C429.444,235.298 422.047,250.765 418.963,260.581 C417.938,263.839 417.262,267.11 416.662,269.995 C416.004,273.164 415.436,275.902 414.601,277.764 C414.044,279.003 414.021,279.943 414.532,280.553 C415.457,281.66 417.711,281.14 417.963,281.075 L418.064,281.05 L418.136,280.976 L418.187,280.925 L417.514,280.434 C416.817,280.56 415.558,280.656 415.084,280.091 M165.963,205.629 C167.429,205.056 168.859,204.394 170.298,203.753 C171.748,203.135 173.15,202.408 174.569,201.715 C175.999,201.048 177.358,200.23 178.755,199.486 C180.141,198.724 181.468,197.842 182.829,197.024 L183.03,196.903 L183.18,196.638 C184.844,193.694 186.567,190.786 188.392,187.947 C188.909,187.141 189.432,186.338 189.969,185.544 C192.392,181.955 195.01,178.504 197.822,175.222 C199.237,173.586 200.691,171.987 202.195,170.421 L204.472,168.052 C204.855,167.651 205.237,167.241 205.62,166.797 C205.998,166.369 206.41,165.806 206.692,165.392 C207.478,164.25 208.28,163.127 209.09,162.012 C210.83,159.62 212.628,157.287 214.533,155.038 C215.748,153.609 217.012,152.225 218.31,150.873 C222.98,146.011 228.171,141.673 233.862,138.057 C241.123,133.424 249.11,129.957 257.377,127.412 C261.52,126.16 265.732,125.13 269.982,124.262 C274.24,123.436 278.532,122.772 282.845,122.227 C287.159,121.709 291.495,121.311 295.842,121.079 L299.104,120.906 C300.212,120.866 301.406,120.7 302.491,120.478 C304.689,120.034 306.803,119.421 308.912,118.795 C313.119,117.521 317.261,116.115 321.413,114.758 C325.555,113.419 329.709,111.958 333.945,111.242 C334.472,111.171 335.002,111.108 335.515,111.113 C335.988,111.096 336.583,111.204 337.111,111.243 C338.207,111.344 339.248,111.534 340.32,111.728 C342.456,112.121 344.56,112.696 346.645,113.327 C350.81,114.611 354.899,116.186 358.849,118.057 C354.97,116.042 350.948,114.275 346.794,112.862 C344.715,112.165 342.612,111.524 340.457,111.061 C339.387,110.833 338.277,110.603 337.2,110.473 C336.641,110.414 336.156,110.301 335.533,110.288 C334.952,110.263 334.393,110.311 333.834,110.367 C329.412,110.963 325.226,112.286 321.013,113.485 C316.819,114.742 312.654,116.072 308.463,117.241 C306.368,117.816 304.265,118.374 302.165,118.751 C301.104,118.943 300.125,119.061 299.046,119.081 L295.754,119.185 C291.365,119.326 286.979,119.635 282.602,120.066 C273.848,120.945 265.15,122.586 256.672,125.082 C248.216,127.62 239.987,131.117 232.461,135.844 C228.702,138.205 225.114,140.853 221.773,143.784 C218.459,146.745 215.371,149.954 212.53,153.35 C209.692,156.746 207.074,160.328 204.611,163.957 C203.522,165.591 201.878,167.092 200.396,168.711 C198.884,170.31 197.405,171.958 195.97,173.64 C191.48,178.952 187.52,184.679 184.022,190.66 C183.118,192.209 182.24,193.772 181.397,195.353 C180.17,196.134 178.972,196.959 177.708,197.688 C176.358,198.443 175.05,199.269 173.658,199.956 C172.279,200.665 170.918,201.407 169.502,202.048 C168.097,202.709 166.702,203.392 165.265,203.988 C163.836,204.602 162.417,205.239 160.961,205.795 C159.514,206.362 158.078,206.964 156.606,207.478 C155.139,208.001 153.69,208.573 152.207,209.051 C150.726,209.536 149.257,210.063 147.766,210.516 L143.297,211.897 L138.798,213.186 L134.268,214.367 L129.709,215.436 L125.124,216.392 C123.59,216.691 122.048,216.942 120.511,217.22 C118.971,217.481 117.425,217.695 115.88,217.936 L111.219,218.487 L115.901,218.151 C117.455,217.981 119.019,217.846 120.575,217.648 C122.125,217.424 123.679,217.225 125.227,216.977 L129.86,216.179 L134.474,215.263 L139.065,214.233 C142.112,213.492 145.157,212.726 148.169,211.841 C149.682,211.419 151.17,210.919 152.673,210.461 C154.178,210.013 155.651,209.465 157.143,208.971 C158.636,208.481 160.1,207.906 161.575,207.362 C163.056,206.834 164.504,206.22 165.963,205.629 M395.872,136.85 L395.854,136.837 L395.903,136.884 L395.872,136.85 M395.893,136.879 L395.85,136.834 L395.846,136.832 L395.861,136.85 L395.893,136.879 z M415.387,179.309 C414.833,180.38 414.258,181.35 413.698,182.246 C412.582,184.041 411.52,185.534 410.637,186.759 C408.861,189.198 407.767,190.527 407.767,190.527 C407.767,190.527 408.676,189.063 410.184,186.462 C410.937,185.164 411.83,183.573 412.789,181.73 C413.265,180.807 413.748,179.814 414.189,178.756 C414.602,177.701 415.087,176.561 414.979,175.531 C414.884,174.386 414.515,173.116 414.083,171.839 C413.654,170.554 413.143,169.233 412.583,167.885 C412.149,166.841 411.677,165.774 411.193,164.694 C411.052,164.381 410.915,164.07 410.771,163.754 C410.456,163.041 410.138,162.322 409.814,161.595 C409.702,161.329 409.583,161.047 409.465,160.732 C409.42,160.612 409.375,160.502 409.331,160.364 C409.16,159.602 409.215,159.264 409.21,158.798 C409.246,157.678 409.349,156.601 409.465,155.525 C409.528,154.95 409.59,154.374 409.658,153.792 C409.859,152.134 410.082,150.464 410.334,148.789 C410.535,147.403 410.746,146.007 410.956,144.611 C411.252,142.629 411.546,140.643 411.807,138.664 C411.906,137.893 411.995,137.113 412.058,136.384 L411.891,136.393 C410.418,136.512 408.729,136.938 407.116,137.326 C405.471,137.736 403.838,138.14 402.224,138.541 C400.577,138.916 398.958,139.271 397.169,139.382 C396.714,139.399 396.247,139.403 395.709,139.321 C395.438,139.274 395.141,139.206 394.803,139.048 C394.709,138.998 394.651,138.98 394.516,138.887 C394.413,138.821 394.245,138.685 394.243,138.677 L393.985,138.416 C393.529,137.93 392.96,137.46 392.373,137.019 C391.184,136.146 389.926,135.348 388.684,134.589 C386.188,133.079 383.727,131.777 381.478,130.528 C376.952,128.072 373.169,126.005 370.588,124.442 C369.29,123.673 368.293,123.031 367.618,122.584 C366.945,122.137 366.588,121.897 366.588,121.897 C366.588,121.897 368.131,122.668 370.865,123.912 C373.611,125.143 377.532,126.9 382.239,129.011 C384.593,130.076 387.114,131.299 389.76,132.702 C391.081,133.406 392.423,134.178 393.757,135.106 C394.424,135.578 395.091,136.08 395.739,136.728 L395.843,136.83 L395.845,136.831 L395.848,136.831 C395.87,136.838 395.964,136.869 396.085,136.883 C396.337,136.916 396.676,136.915 397.025,136.89 C398.455,136.777 400.042,136.389 401.619,136.01 C403.221,135.599 404.841,135.182 406.474,134.764 C408.146,134.355 409.771,133.897 411.71,133.715 C412.23,133.706 412.696,133.607 413.589,133.918 C413.808,134.006 414.112,134.172 414.373,134.485 C414.649,134.805 414.78,135.251 414.79,135.606 C414.797,135.795 414.791,136.08 414.775,136.367 C414.716,137.299 414.595,138.152 414.479,139.019 C414.214,140.916 413.922,142.794 413.628,144.66 C413.388,146.174 413.146,147.683 412.915,149.179 C412.425,152.497 411.813,155.829 411.607,158.878 C411.578,159.214 411.604,159.688 411.605,159.708 C411.679,159.974 411.831,160.339 411.971,160.702 C412.266,161.433 412.559,162.156 412.848,162.871 C413.009,163.277 413.164,163.678 413.32,164.081 C413.725,165.113 414.118,166.137 414.484,167.146 C415.472,169.973 416.424,172.636 416.545,175.475 C416.541,175.835 416.525,176.217 416.44,176.588 C416.386,176.874 416.256,177.305 416.148,177.585 C415.922,178.204 415.661,178.771 415.387,179.309 M395.514,178.971 C396.167,182.372 392.636,189.871 399.125,187.815 C399.125,187.815 395.033,176.476 395.514,178.971 M165.598,309.907 C166.048,309.502 166.411,309.071 166.695,308.684 C167.264,307.908 167.478,307.282 167.478,307.282 C167.478,307.282 166.916,307.616 166.157,308.126 C165.779,308.372 165.339,308.658 164.867,308.967 C164.641,309.125 164.388,309.261 164.146,309.417 C163.911,309.581 163.651,309.709 163.4,309.853 C163.154,310.004 162.897,310.126 162.649,310.262 C162.388,310.357 162.15,310.512 161.902,310.603 C161.651,310.68 161.418,310.812 161.182,310.876 C160.947,310.934 160.723,311.031 160.513,311.079 C160.3,311.117 160.101,311.167 159.92,311.213 C159.739,311.249 159.58,311.256 159.443,311.279 C159.172,311.318 159.005,311.35 159.005,311.35 C159.005,311.35 159.143,311.428 159.404,311.546 C159.665,311.683 160.059,311.791 160.56,311.855 C161.055,311.907 161.65,311.883 162.261,311.742 C162.564,311.668 162.873,311.573 163.18,311.459 C163.471,311.32 163.778,311.192 164.064,311.034 C164.625,310.694 165.164,310.328 165.598,309.907 M169.456,312.774 C169.802,311.963 169.85,311.35 169.85,311.35 C169.85,311.35 169.398,311.754 168.806,312.353 C168.518,312.663 168.164,312.999 167.826,313.385 C167.668,313.587 167.453,313.748 167.282,313.955 C167.101,314.149 166.926,314.356 166.736,314.548 C166.548,314.738 166.361,314.931 166.175,315.118 C165.981,315.295 165.836,315.528 165.636,315.677 C165.445,315.838 165.275,316.014 165.11,316.18 C164.936,316.331 164.801,316.53 164.638,316.646 C164.003,317.146 163.581,317.619 163.581,317.619 C163.581,317.619 164.164,317.58 165.041,317.312 C165.267,317.259 165.464,317.126 165.692,317.007 C165.915,316.884 166.156,316.755 166.391,316.602 C166.872,316.306 167.275,315.87 167.722,315.478 C168.099,315.025 168.485,314.578 168.771,314.108 C169.054,313.637 169.306,313.191 169.456,312.774 M368.838,239.013 C368.748,238.785 368.654,238.551 368.562,238.318 C368.389,237.847 368.09,237.436 367.855,237.034 C367.729,236.839 367.574,236.669 367.442,236.501 C367.31,236.334 367.181,236.178 367.043,236.052 C366.52,235.518 366.086,235.265 366.086,235.265 C366.086,235.265 366.155,235.368 366.273,235.549 C366.401,235.719 366.546,235.987 366.737,236.291 C366.93,236.594 367.124,236.967 367.347,237.347 C367.519,237.757 367.795,238.144 367.944,238.594 C368.126,239.026 368.333,239.45 368.447,239.878 C368.568,240.299 368.759,240.682 368.81,241.035 C368.972,241.729 369.13,242.212 369.13,242.212 C369.13,242.212 369.187,241.728 369.195,240.976 C369.228,240.595 369.105,240.174 369.021,239.712 C368.963,239.486 368.945,239.236 368.838,239.013 M365.6,241.589 C365.35,241.01 365.079,240.438 364.767,239.938 C364.47,239.431 364.149,238.986 363.861,238.617 C363.275,237.883 362.805,237.467 362.805,237.467 C362.805,237.467 363.098,238.013 363.537,238.828 C363.746,239.238 363.998,239.71 364.245,240.223 C364.497,240.733 364.746,241.285 364.97,241.842 C365.204,242.398 365.391,242.969 365.555,243.507 C365.705,244.048 365.805,244.56 365.882,245.008 C365.896,245.232 365.924,245.437 365.947,245.624 C365.975,245.811 365.952,245.97 365.959,246.104 C365.959,246.373 365.967,246.533 365.967,246.533 C365.967,246.533 366.018,246.387 366.088,246.121 C366.117,245.987 366.181,245.826 366.199,245.636 C366.224,245.446 366.251,245.228 366.271,244.989 C366.282,244.514 366.247,243.954 366.135,243.367 C366.02,242.783 365.83,242.176 365.6,241.589 M361.511,245.535 C360.842,244.449 360.054,242.745 359.123,240.549 C358.203,238.349 357.179,235.636 356.091,232.494 C355.551,230.922 354.996,229.241 354.434,227.467 C353.859,225.696 353.267,223.825 352.746,221.874 C352.619,221.388 352.493,220.892 352.4,220.411 C352.309,219.976 352.282,219.46 352.229,218.922 C352.129,217.85 352.001,216.714 351.735,215.591 C351.242,213.333 350.342,211.088 349.119,208.983 C347.898,206.873 346.387,204.89 344.732,202.973 C343.004,201.126 341.185,199.316 339.157,197.644 C338.653,197.22 338.15,196.796 337.644,196.368 C337.13,195.975 336.615,195.58 336.099,195.183 C335.08,194.386 333.984,193.602 333.047,192.806 C331.129,191.187 329.452,189.268 328.104,187.089 C327.447,186.039 326.87,184.931 326.346,183.784 C325.786,182.558 325.285,181.286 324.825,179.983 C323.92,177.463 323.174,174.816 322.028,172.18 C321.436,170.873 320.745,169.556 319.797,168.359 L319.639,168.157 L319.559,168.057 L319.519,168.008 L319.41,167.884 C319.193,167.636 318.915,167.443 318.636,167.29 C318.067,167.004 317.512,166.933 317.04,166.927 C316.088,166.933 315.333,167.151 314.609,167.384 C312.39,168.174 310.485,169.25 308.64,170.376 C308.139,170.683 307.637,170.991 307.14,171.3 C302.538,174.231 298.301,177.437 294.176,180.498 C290.058,183.562 286.15,186.609 282.414,189.452 C278.679,192.296 275.126,194.952 271.797,197.33 C268.46,199.696 265.381,201.833 262.583,203.619 C259.786,205.401 257.263,206.827 255.116,207.849 C253.201,208.755 251.618,209.349 250.408,209.679 C250.262,209.719 250.095,209.771 249.958,209.803 C248.717,210.106 248.026,210.129 248.026,210.129 C248.026,210.129 248.715,210.159 249.988,209.947 C250.114,209.926 250.272,209.891 250.408,209.863 C251.654,209.624 253.326,209.163 255.329,208.332 C259.783,206.497 265.829,203.163 272.663,198.587 C279.509,194.025 287.302,188.433 295.59,182.421 C296.957,181.436 298.35,180.443 299.751,179.452 C302.607,177.435 305.532,175.426 308.538,173.514 C310.775,172.129 313.117,170.717 315.445,169.915 C316.011,169.728 316.594,169.596 317.012,169.603 C317.22,169.605 317.354,169.649 317.398,169.671 L317.431,169.699 L317.408,169.667 L317.448,169.718 L317.526,169.819 L317.685,170.02 C318.431,170.972 319.023,172.097 319.549,173.279 C320.602,175.655 321.368,178.281 322.313,180.883 C322.955,182.666 323.693,184.446 324.574,186.163 C324.979,186.951 325.405,187.73 325.88,188.483 C327.38,190.873 329.26,193.027 331.413,194.767 C332.504,195.66 333.56,196.382 334.603,197.17 C335.127,197.557 335.648,197.941 336.167,198.326 C336.653,198.724 337.141,199.121 337.625,199.515 C341.508,202.683 344.95,206.188 347.37,210.022 C348.576,211.942 349.465,213.964 349.985,216.009 C350.267,217.03 350.417,218.058 350.55,219.103 C350.624,219.623 350.663,220.167 350.804,220.753 C350.932,221.298 351.078,221.802 351.229,222.303 C352.454,226.27 353.824,229.773 355.103,232.868 C356.378,235.957 357.567,238.619 358.623,240.776 C359.672,242.936 360.625,244.575 361.384,245.622 C361.76,246.145 362.099,246.514 362.361,246.72 C362.625,246.933 362.805,246.955 362.805,246.955 C362.805,246.955 362.628,246.919 362.387,246.689 C362.146,246.466 361.842,246.08 361.511,245.535 M241.34,198.323 C241.646,199.015 241.481,199.822 241.322,200.54 C241.122,201.263 240.881,201.979 240.588,202.67 C240.01,204.059 239.313,205.39 238.588,206.702 C237.128,209.321 235.466,211.819 233.744,214.272 C232.017,216.723 230.17,219.086 228.246,221.392 C226.325,223.702 224.294,225.927 222.113,228.024 C221.027,229.078 219.886,230.087 218.685,231.045 C217.462,232.019 216.201,232.838 214.984,233.679 C212.507,235.351 210.049,237.001 207.667,238.743 C205.281,240.48 202.987,242.311 200.824,244.261 C198.662,246.208 196.674,248.331 195.037,250.669 C193.392,253.001 192.122,255.555 191.361,258.25 L191.084,259.263 L191.015,259.517 L190.967,259.758 L190.862,260.307 L189.594,266.891 C189.27,268.362 189.133,269.802 188.945,271.248 L188.669,273.417 L188.528,274.501 L188.469,275.601 L188.242,280.01 L188.109,284.486 C188.051,287.472 187.751,290.543 187.283,293.508 C186.815,296.491 186.204,299.442 185.438,302.354 C184.667,305.263 183.759,308.135 182.684,310.948 C182.145,312.355 181.55,313.743 180.869,315.1 C180.525,315.777 180.16,316.448 179.741,317.1 C179.526,317.425 179.304,317.746 179.028,318.057 C178.896,318.212 178.742,318.366 178.555,318.51 C178.409,318.618 178.22,318.739 177.953,318.788 C177.381,319.306 176.781,319.768 176.158,320.199 C175.966,320.331 175.783,320.474 175.586,320.599 C174.698,321.156 173.753,321.659 172.704,321.904 C172.182,322.024 171.629,322.078 171.086,321.969 C170.819,321.923 170.553,321.828 170.316,321.691 C170.076,321.565 169.854,321.396 169.676,321.196 C169.481,321.011 169.338,320.782 169.2,320.56 C169.07,320.331 168.957,320.097 168.873,319.851 C168.686,319.365 168.584,318.858 168.495,318.353 C168.626,318.85 168.769,319.343 168.991,319.799 C169.095,320.033 169.223,320.249 169.365,320.457 C169.513,320.655 169.664,320.857 169.855,321.009 C170.033,321.178 170.242,321.308 170.461,321.401 C170.678,321.502 170.911,321.565 171.148,321.585 C171.383,321.616 171.626,321.608 171.864,321.576 C172.104,321.55 172.341,321.491 172.575,321.42 C173.512,321.129 174.375,320.597 175.18,320.007 C175.529,319.75 175.866,319.47 176.197,319.185 C176.627,318.811 177.044,318.427 177.432,318.029 L177.792,317.894 C177.773,317.895 178.103,317.699 178.276,317.421 C178.482,317.161 178.668,316.858 178.846,316.551 C179.198,315.929 179.511,315.269 179.803,314.599 C180.384,313.257 180.877,311.864 181.347,310.469 C182.275,307.668 183.038,304.809 183.665,301.925 C184.306,299.044 184.822,296.137 185.178,293.215 C185.534,290.277 185.729,287.397 185.744,284.422 L185.787,279.96 L185.932,275.436 L185.97,274.301 L186.094,273.167 L186.362,270.899 C186.548,269.391 186.692,267.858 187.002,266.413 L187.819,262.018 L188.226,259.819 L188.328,259.271 L188.387,258.964 L188.461,258.678 L188.764,257.533 C189.585,254.478 191.064,251.648 192.862,249.123 C196.491,244.047 201.324,240.19 206.231,236.734 C208.695,235.006 211.219,233.382 213.715,231.769 C214.973,230.95 216.24,230.186 217.375,229.335 C218.533,228.473 219.659,227.541 220.746,226.555 C222.919,224.583 224.993,222.473 226.993,220.295 C228.998,218.118 230.899,215.843 232.755,213.53 C234.604,211.211 236.362,208.816 237.994,206.342 C238.804,205.101 239.572,203.83 240.248,202.514 C240.594,201.858 240.887,201.181 241.142,200.486 C241.354,199.79 241.585,199.047 241.34,198.323" fill="#FFFFFE"/>
  </g>
</svg>