<svg width="20" height="20" viewBox="0 0 20 20" fill="none" xmlns="http://www.w3.org/2000/svg">
<path d="M19.907 19.2095C19.883 19.176 17.5 15.8 17.5 13V8C17.5 6.01088 16.7099 4.10322 15.3033 2.6967C13.8968 1.29018 11.9892 0.5 10 0.5C8.01093 0.5 6.10327 1.29018 4.69675 2.6967C3.29023 4.10322 2.50005 6.01088 2.50005 8V13C2.50005 15.8 0.117048 19.176 0.0930484 19.2095C0.0396776 19.2843 0.00793505 19.3723 0.00130443 19.4639C-0.00532619 19.5555 0.0134115 19.6472 0.055461 19.7289C0.0975104 19.8105 0.161246 19.8791 0.239674 19.9269C0.318101 19.9747 0.408188 20 0.500048 20H19.5C19.5919 20 19.682 19.9747 19.7604 19.9269C19.8389 19.8791 19.9026 19.8105 19.9446 19.7289C19.9867 19.6472 20.0054 19.5555 19.9988 19.4639C19.9922 19.3723 19.9604 19.2843 19.907 19.2095Z" fill="white"/>
</svg>
